Coordinates
version=1
nRows=26
nColumns=24
inDegrees=yes

Units are S.I. units (second, meters, Newtons, ...)
Angles are in degrees.

endheader
time	pelvis_tilt	pelvis_list	pelvis_rotation	pelvis_tx	pelvis_ty	pelvis_tz	hip_flexion_r	hip_adduction_r	hip_rotation_r	knee_angle_r	ankle_angle_r	subtalar_angle_r	mtp_angle_r	hip_flexion_l	hip_adduction_l	hip_rotation_l	knee_angle_l	ankle_angle_l	subtalar_angle_l	mtp_angle_l	lumbar_extension	lumbar_bending	lumbar_rotation
      1.28800000	     -1.07557872	     -3.35562180	     -6.24955621	     -0.00357791	      0.96283230	      0.35044594	    -19.42983712	      4.78368026	      3.61102212	     -7.94927136	     11.30942360	     -2.33390860	      5.14325512	     28.09290573	     -3.91673385	     -8.53727610	     -1.61975297	      5.14614852	     -3.18180855	      2.33117069	     -0.30065107	      6.73001340	     10.33127307
      1.29216667	     -1.16933911	     -3.24959239	     -6.32337199	      0.00248111	      0.96209043	      0.35016155	    -19.52482536	      4.59247290	      3.53022327	     -8.21703664	     11.06509191	     -2.18521655	      5.32086639	     28.20583757	     -3.80333117	     -8.35759951	     -2.06059972	      4.90787106	     -3.69720105	      2.35098321	     -0.12178090	      6.60144676	     10.50521250
      1.29633333	     -1.23788935	     -3.11294200	     -6.40644951	      0.00860899	      0.96142488	      0.34988719	    -19.64016755	      4.36432500	      3.47879157	     -8.49838564	     10.83003154	     -2.15589861	      5.47612117	     28.30136854	     -3.66853827	     -8.26184536	     -2.56522748	      4.72108402	     -4.08034747	      2.37368163	      0.01974022	      6.43749533	     10.58229971
      1.30050000	     -1.30966192	     -2.99234318	     -6.47223962	      0.01479777	      0.96078656	      0.34958619	    -19.75350386	      4.15704069	      3.40912074	     -8.77530089	     10.56185459	     -2.10379862	      5.71323809	     28.39102983	     -3.53705700	     -8.09782026	     -3.07639626	      4.44381212	     -4.61113930	      2.41425368	      0.20575448	      6.29388086	     10.69812542
      1.30466667	     -1.36926505	     -2.83356193	     -6.55400088	      0.02104627	      0.96020976	      0.34932625	    -19.85633074	      3.90552460	      3.35138342	     -9.09409993	     10.26219337	     -2.14684879	      5.83528412	     28.47402407	     -3.38322522	     -8.03149345	     -3.63555063	      4.22304542	     -4.95799706	      2.43713402	      0.36491207	      6.08429369	     10.75462682
      1.30883333	     -1.48035708	     -2.70350550	     -6.59600118	      0.02732364	      0.95959284	      0.34897259	    -19.91723290	      3.70013228	      3.29895317	     -9.38214072	      9.95018771	     -2.09253608	      6.14110172	     28.59887091	     -3.22710109	     -7.76442679	     -4.17066365	      3.80042021	     -5.63623104	      2.50185098	      0.58881270	      5.95318852	     10.87961917
      1.31300000	     -1.49321646	     -2.50034278	     -6.64586164	      0.03370630	      0.95913274	      0.34860565	    -20.03949342	      3.38528580	      3.07697365	     -9.72606630	      9.50182110	     -1.88710726	     10.67721522	     28.60402828	     -2.99462752	     -7.61692927	     -4.70120336	      3.42968984	     -6.21930937	      3.59848923	      0.70185707	      5.70146042	     10.86546652
      1.31716667	     -1.64615452	     -2.36655254	     -6.69033051	      0.04005929	      0.95856224	      0.34828344	    -20.02162068	      3.19028696	      3.09013144	    -10.07970422	      9.14768420	     -2.10792384	     10.74803278	     28.79359767	     -2.85174346	     -7.45630571	     -5.31247103	      2.98880133	     -6.67767731	      3.59491145	      1.00078528	      5.54250506	     11.00916390
      1.32133333	     -1.71449624	     -2.18350429	     -6.73354601	      0.04650566	      0.95813647	      0.34795277	    -20.07601546	      2.92536370	      3.01943703	    -10.45322503	      8.70283747	     -2.22921696	     10.79403288	     28.88080945	     -2.65470330	     -7.38263318	     -5.91780239	      2.59681831	     -7.02804368	      3.59667687	      1.20131631	      5.31077190	     11.05607615
      1.32550000	     -1.82723512	     -2.01511223	     -6.74768457	      0.05294351	      0.95769798	      0.34752967	    -20.06996741	      2.68839908	      2.95886363	    -10.84346016	      8.28724113	     -2.26700892	     11.03018400	     28.98231277	     -2.43411353	     -7.06066922	     -6.44849691	      2.00961010	     -7.85179381	      3.63801570	      1.43976191	      5.12663321	     11.13127497
      1.32966667	     -1.94689069	     -1.83179308	     -6.74772438	      0.05947419	      0.95729577	      0.34712290	    -20.06089103	      2.44405367	      2.89944374	    -11.21164382	      7.74113888	     -2.31971320	     11.20791695	     29.12565701	     -2.21467875	     -6.91656673	     -7.06473164	      1.50099463	     -8.29922416	      3.67244616	      1.72147257	      4.90224633	     11.18130719
      1.33383333	     -2.04197131	     -1.60656580	     -6.74863046	      0.06601905	      0.95697963	      0.34666054	    -20.01317767	      2.14410361	      2.75693006	    -11.70195000	      7.28899276	     -2.38970112	     11.74382395	     29.20141488	     -1.93273479	     -6.69163912	     -7.59557989	      0.90960183	     -8.97943647	      3.79141763	      1.96183935	      4.63194072	     11.20625479
      1.33800000	     -2.17408548	     -1.43250644	     -6.73343326	      0.07257687	      0.95666957	      0.34621950	    -19.94939248	      1.91850822	      2.71831821	    -12.12730280	      6.60789629	     -2.46586326	     11.99020206	     29.37433326	     -1.72186184	     -6.58903741	     -8.26014072	      0.41622237	     -9.33254539	      3.84227702	      2.25588636	      4.42937679	     11.24666969
      1.34216667	     -2.28240729	     -1.18563713	     -6.71117689	      0.07916989	      0.95643541	      0.34570577	    -19.83574784	      1.60475835	      2.55916413	    -12.69754462	      6.09336935	     -2.56726668	     12.81799317	     29.46157862	     -1.40674783	     -6.36805967	     -8.79236855	     -0.19063689	     -9.99549151	      4.01769470	      2.52269611	      4.12792924	     11.24667065
      1.34633333	     -2.41662318	     -1.00429735	     -6.67251291	      0.08576367	      0.95622757	      0.34522522	    -19.72625202	      1.38229817	      2.52941815	    -13.18150009	      5.29580491	     -2.66517625	     13.09557022	     29.64758318	     -1.18533126	     -6.31690880	     -9.49084313	     -0.64223135	    -10.22109386	      4.07092237	      2.82185752	      3.91659249	     11.27194599
      1.35050000	     -2.52325294	     -0.75149407	     -6.63805840	      0.09237850	      0.95609007	      0.34466780	    -19.55182801	      1.05478708	      2.31316317	    -13.82502810	      4.53689418	     -2.73041670	     19.16493655	     29.76205686	     -0.87483834	     -6.22824583	    -10.09523224	     -1.16684863	    -10.62750481	      5.21474689	      3.08676487	      3.61721190	     11.26535418
      1.35466667	     -2.60647088	     -0.51503628	     -6.58055536	      0.09901427	      0.95604970	      0.34413790	    -19.42688285	      0.77544461	      2.25635019	    -14.42666259	      3.76212704	     -2.94191438	     19.18322334	     29.86661594	     -0.58218787	     -6.18311926	    -10.74808394	     -1.56790523	    -10.82236461	      5.20239166	      3.32711035	      3.32220909	     11.26326903
      1.35883333	     -2.74529534	     -0.30581464	     -6.50365238	      0.10559994	      0.95598674	      0.34353782	    -19.20168808	      0.53504969	      2.19496519	    -15.09175975	      2.93381092	     -3.08667163	     19.29073680	     30.03254724	     -0.29965040	     -6.03591453	    -11.40293410	     -2.02158007	    -11.23885022	      5.18844974	      3.63236259	      3.07816103	     11.23596724
      1.36300000	     -2.84801055	     -0.06191871	     -6.41813196	      0.11221754	      0.95601570	      0.34293274	    -18.98213153	      0.25559800	      2.10428640	    -15.80654622	      2.07157624	     -3.22867072	     19.42322816	     30.15839270	      0.01381088	     -5.97279523	    -12.06257614	     -2.39868264	    -11.48110235	      5.18021883	      3.90343357	      2.77430181	     11.20515279
      1.36716667	     -2.93878808	      0.18257432	     -6.32304256	      0.11880591	      0.95609814	      0.34228579	    -18.73488671	     -0.02449385	      2.00771036	    -16.58374714	      1.15939047	     -3.35903471	     19.61312837	     30.26736742	      0.33565144	     -5.90239089	    -12.71779506	     -2.72744535	    -11.71105090	      5.17495659	      4.15155462	      2.47571384	     11.15925642
      1.37133333	     -3.04899323	      0.44856606	     -6.23224138	      0.12537356	      0.95620251	      0.34160925	    -18.41230230	     -0.33051234	      1.90396788	    -17.44919480	      0.24230875	     -3.45094551	     20.10244561	     30.38004680	      0.68315311	     -5.80650288	    -13.34488928	     -2.98252265	    -12.00005906	      5.16919077	      4.42580261	      2.15218133	     11.07546997
      1.37550000	     -3.09346361	      0.72457425	     -6.11537749	      0.13196141	      0.95644020	      0.34094326	    -18.15882141	     -0.63633124	      1.81606794	    -18.30397488	     -0.73991964	     -3.65857457	     20.21536304	     30.43396990	      1.03469766	     -5.83327076	    -13.99954408	     -3.21541493	    -12.00133110	      5.16558031	      4.61980064	      1.79293870	     11.05715806
      1.37966667	     -3.15302160	      0.98288224	     -5.99253893	      0.13848241	      0.95668598	      0.34024359	    -17.84193496	     -0.92037693	      1.73954529	    -19.23180932	     -1.78988136	     -3.82577138	     20.34786739	     30.50150971	      1.37550455	     -5.81943325	    -14.65615422	     -3.37129581	    -12.06934865	      5.16182045	      4.82350632	      1.46467056	     11.00780924
      1.38383333	     -3.21478135	      1.24321391	     -5.86649773	      0.14495613	      0.95696532	      0.33951343	    -17.47773108	     -1.20691365	      1.66503053	    -20.22798399	     -2.86862889	     -3.97906508	     20.50293734	     30.56006863	      1.72136960	     -5.80391500	    -15.29197580	     -3.49537301	    -12.13657139	      5.15640322	      5.02019961	      1.14233938	     10.93990324
      1.38800000	     -3.21837602	      1.53784280	     -5.74743341	      0.15139529	      0.95734775	      0.33870829	    -17.11698825	     -1.56792780	      1.48356722	    -21.29254059	     -4.06258554	     -3.90052327	     26.26062091	     30.51614461	      2.12117982	     -5.76185481	    -15.83831701	     -3.67928742	    -12.35594991	      4.89427878	      5.15289026	      0.78200725	     10.73850519
      1.39216667	     -3.27829274	      1.79084946	     -5.59215713	      0.15778335	      0.95767179	      0.33794312	    -16.68402976	     -1.83050792	      1.42802293	    -22.40258681	     -5.14543505	     -4.20240270	     26.27514939	     30.56452273	      2.46602898	     -5.76215371	    -16.46999386	     -3.64948370	    -12.29724808	      4.89707022	      5.33969215	      0.45064380	     10.73542076
